<svg width="138" height="130" viewBox="0 0 138 130" fill="none" xmlns="http://www.w3.org/2000/svg">
<path d="M127.893 0.986328H10.1074C4.53405 0.986328 0 5.52038 0 11.0938V100.039C0 105.612 4.53405 110.146 10.1074 110.146H53.2478L50.8147 118.662C49.8377 122.082 46.0076 124.971 42.4512 124.971H27.2227C26.1063 124.971 25.2012 125.876 25.2012 126.992C25.2012 128.109 26.1063 129.014 27.2227 129.014H110.777C111.894 129.014 112.799 128.109 112.799 126.992C112.799 125.876 111.894 124.971 110.777 124.971H95.5488C91.9924 124.971 88.1623 122.082 87.1853 118.662L84.7522 110.146H127.893C133.466 110.146 138 105.612 138 100.039V11.0938C138 5.52038 133.466 0.986328 127.893 0.986328ZM10.1074 5.0293H127.893C131.237 5.0293 133.957 7.74995 133.957 11.0938V81.8457H4.04297V11.0938C4.04297 7.74995 6.76335 5.0293 10.1074 5.0293ZM83.2978 119.773C83.8525 121.715 84.9552 123.499 86.4007 124.971H51.5993C53.0448 123.499 54.1475 121.714 54.7022 119.773L57.4525 110.146H80.5473L83.2978 119.773ZM127.893 106.104H10.1074C6.76335 106.104 4.04297 103.383 4.04297 100.039V85.8887H133.957V100.039C133.957 103.383 131.237 106.104 127.893 106.104Z" fill="black"/>
</svg>
